<?xml version="1.0" standalone="no"?><!DOCTYPE svg PUBLIC "-//W3C//DTD SVG 1.1//EN" "http://www.w3.org/Graphics/SVG/1.1/DTD/svg11.dtd"><svg class="icon" width="200px" height="200.00px" viewBox="0 0 1024 1024" version="1.1" xmlns="http://www.w3.org/2000/svg"><path fill="#ffffff" d="M978.070965 64.47976H42.346827c-20.533733 0-41.067466 16.951524-41.067467 38.188906v233.227386c0 21.237381 6.844578 38.188906 29.873064 38.188906 22.964518 0 32.943528-14.2009 32.943528-38.188906V128.831584H959.776112v211.350325c0 21.173413 13.561219 38.124938 35.310345 38.124938 21.749125 0 28.145927-16.951524 28.145927-38.124938V106.826587c-4.093953-21.173413-20.469765-42.410795-45.161419-42.410795zM544.87956 896.191904V301.993003c0-21.173413-8.251874-38.188906-32.87956-38.188905-20.469765 0-30.576712 17.015492-30.576712 38.188905v594.134933l-144.567716-182.756622c-9.723138-7.612194-30.896552-16.75962-48.743628 0-17.911044 16.75962-5.117441 39.404298 0 48.103948l193.311344 241.287357c9.97901 13.817091 20.149925 20.725637 30.576712 20.725637 10.426787 0 21.365317-6.908546 32.87956-20.725637l182.82059-234.250875c16.43978-16.951524 15.032484-42.154923 0-55.14043-17.3993-9.915042-37.677161-2.558721-49.703149 8.635683l-133.117441 174.120939z" /></svg>